<?xml version="1.0" standalone="no"?><svg xmlns:xlink="http://www.w3.org/1999/xlink" xmlns="http://www.w3.org/2000/svg" viewBox="0 0 1000 599.9832945279137" preserveAspectRatio="xMaxYMax slice"><g transform="scale(2.0881840107750294)"><rect x="0" y="0" width="478.8883333333333" height="287.33299999999997" fill="#ffffff"/><path d="M 0 0 A 47.89 47.89 0 0 1  47.89 47.89 L 0 0 A 47.89 47.89 0 0 0 47.89 47.89" fill="#feecec"/><rect x="191.55533333333332" y="0" width="47.88883333333333" height="47.88883333333333" fill="#ffffff"/><path d="M 215.5 0 A 23.94 23.94 0 0 1  239.44 23.94 L 215.5 0 A 23.94 23.94 0 0 0 239.44 23.94" fill="#f96164"/><path d="M 215.5 47.88 A 23.94 23.94 0 0 1  239.44 23.94 L 215.5 47.88 A 23.94 23.94 0 0 0 239.44 23.94" fill="#fb999b"/><path d="M 287.33 47.89 A 47.89 47.89 0 0 1  335.21999999999997 0 L 287.33 47.89 A 47.89 47.89 0 0 0 335.21999999999997 0" fill="#fee3e3"/><rect x="430.99949999999995" y="0" width="47.88883333333333" height="47.88883333333333" fill="#ffffff"/><path d="M 431 0 A 23.94 23.94 0 0 1  454.94 23.94 L 431 0 A 23.94 23.94 0 0 0 454.94 23.94" fill="#fee2e2"/><path d="M 454.94 0 A 23.94 23.94 0 0 1  478.88 23.94 L 454.94 0 A 23.94 23.94 0 0 0 478.88 23.94" fill="#fdc6c7"/><path d="M 431 47.88 A 23.94 23.94 0 0 1  454.94 23.94 L 431 47.88 A 23.94 23.94 0 0 0 454.94 23.94" fill="#cae7f1"/><path d="M 454.94 23.94 A 23.94 23.94 0 0 1  478.88 47.88 L 454.94 23.94 A 23.94 23.94 0 0 0 478.88 47.88" fill="#feffff"/><path d="M 335.22 95.78 A 47.89 47.89 0 0 1  383.11 47.89 L 335.22 95.78 A 47.89 47.89 0 0 0 383.11 47.89" fill="#f96b6e"/><path d="M 383.11 47.89 A 47.89 47.89 0 0 1  431 95.78 L 383.11 47.89 A 47.89 47.89 0 0 0 431 95.78" fill="#e8f4f9"/><path d="M 47.89 143.67000000000002 A 47.89 47.89 0 0 1  95.78 95.78 L 47.89 143.67000000000002 A 47.89 47.89 0 0 0 95.78 95.78" fill="#fb9294"/><rect x="95.77766666666666" y="95.77766666666666" width="47.88883333333333" height="47.88883333333333" fill="#ffffff"/><path d="M 119.72 119.72 A 23.94 23.94 0 0 1  143.66 95.78 L 119.72 119.72 A 23.94 23.94 0 0 0 143.66 95.78" fill="#f1f9fb"/><path d="M 119.72 119.72 A 23.94 23.94 0 0 1  143.66 143.66 L 119.72 119.72 A 23.94 23.94 0 0 0 143.66 143.66" fill="#d0e9f2"/><rect x="191.55533333333332" y="95.77766666666666" width="47.88883333333333" height="47.88883333333333" fill="#ffffff"/><path d="M 191.56 119.72 A 23.94 23.94 0 0 1  215.5 95.78 L 191.56 119.72 A 23.94 23.94 0 0 0 215.5 95.78" fill="#f3f9fc"/><path d="M 191.56 119.72 A 23.94 23.94 0 0 1  215.5 143.66 L 191.56 119.72 A 23.94 23.94 0 0 0 215.5 143.66" fill="#c4e4ef"/><rect x="383.11066666666665" y="95.77766666666666" width="47.88883333333333" height="47.88883333333333" fill="#ffffff"/><path d="M 383.11 143.66 A 23.94 23.94 0 0 1  407.05 119.72 L 383.11 143.66 A 23.94 23.94 0 0 0 407.05 119.72" fill="#fcfdfe"/><rect x="430.99949999999995" y="95.77766666666666" width="47.88883333333333" height="47.88883333333333" fill="#ffffff"/><path d="M 431 143.66 A 23.94 23.94 0 0 1  454.94 119.72 L 431 143.66 A 23.94 23.94 0 0 0 454.94 119.72" fill="#cee9f2"/><path d="M 47.89 143.67 A 47.89 47.89 0 0 1  95.78 191.56 L 47.89 143.67 A 47.89 47.89 0 0 0 95.78 191.56" fill="#bde1ed"/><path d="M 239.44 143.67 A 47.89 47.89 0 0 1  287.33 191.56 L 239.44 143.67 A 47.89 47.89 0 0 0 287.33 191.56" fill="#bde1ed"/><path d="M 383.11 191.56 A 47.89 47.89 0 0 1  431 143.67 L 383.11 191.56 A 47.89 47.89 0 0 0 431 143.67" fill="#c0e2ee"/><rect x="0" y="191.55533333333332" width="47.88883333333333" height="47.88883333333333" fill="#ffffff"/><path d="M 23.94 239.44 A 23.94 23.94 0 0 1  47.88 215.5 L 23.94 239.44 A 23.94 23.94 0 0 0 47.88 215.5" fill="#fba1a2"/><path d="M 143.67 191.56 A 47.89 47.89 0 0 1  191.56 239.45 L 143.67 191.56 A 47.89 47.89 0 0 0 191.56 239.45" fill="#fff9f9"/><rect x="430.99949999999995" y="191.55533333333332" width="47.88883333333333" height="47.88883333333333" fill="#ffffff"/><path d="M 431 191.56 A 23.94 23.94 0 0 1  454.94 215.5 L 431 191.56 A 23.94 23.94 0 0 0 454.94 215.5" fill="#def0f6"/><path d="M 454.94 191.56 A 23.94 23.94 0 0 1  478.88 215.5 L 454.94 191.56 A 23.94 23.94 0 0 0 478.88 215.5" fill="#e1f1f7"/><path d="M 431 239.44 A 23.94 23.94 0 0 1  454.94 215.5 L 431 239.44 A 23.94 23.94 0 0 0 454.94 215.5" fill="#fa7a7c"/><path d="M 454.94 215.5 A 23.94 23.94 0 0 1  478.88 239.44 L 454.94 215.5 A 23.94 23.94 0 0 0 478.88 239.44" fill="#fdcdce"/><rect x="47.88883333333333" y="239.44416666666666" width="47.88883333333333" height="47.88883333333333" fill="#ffffff"/><path d="M 47.89 287.33 A 23.94 23.94 0 0 1  71.83 263.39 L 47.89 287.33 A 23.94 23.94 0 0 0 71.83 263.39" fill="#f9686b"/><path d="M 71.83 263.39 A 23.94 23.94 0 0 1  95.77 287.33 L 71.83 263.39 A 23.94 23.94 0 0 0 95.77 287.33" fill="#daeef5"/><rect x="191.55533333333332" y="239.44416666666666" width="47.88883333333333" height="47.88883333333333" fill="#ffffff"/><path d="M 215.5 263.38 A 23.94 23.94 0 0 1  239.44 239.44 L 215.5 263.38 A 23.94 23.94 0 0 0 239.44 239.44" fill="#f96164"/><path d="M 431 287.33 A 47.89 47.89 0 0 1  478.89 239.44 L 431 287.33 A 47.89 47.89 0 0 0 478.89 239.44" fill="#d3ebf3"/></g></svg>